# xmcd CD database file
#
# Track frame offsets:
#	150
#	2186
#	18837
#	38378
#	49681
#	51787
#	54849
#	73962
#	74831
#	93081
#	116960
#	117992
#	136462
#	137367
#	139100
#	141466
#	158508
#
# Disc length: 2187 seconds
#
# Revision: 0
# Processed by: cddbd v1.5.1PL0 Copyright (c) Steve Scherf et al.
# Submitted via: CDex 1.50beta10
#
DISCID=f0088911
DTITLE=Little Junior Crudup - Blues Odyssey
DYEAR=2004
DGENRE=Blues
TTITLE0=Country Girl
TTITLE1=Come With Me 
TTITLE2=Obey The Golden Rule
TTITLE3=Sunny Hollywood California
TTITLE4=Wow! Hollywood
TTITLE5=Dear Momma
TTITLE6=Rock Wit The Punches
TTITLE7=I Can't Believe
TTITLE8=Standing At The Nite Club
TTITLE9=The Blues Always Find Me
TTITLE10=I Know What I'm Gonna Do
TTITLE11=Goin' Back To My Home Town
TTITLE12=Airline
TTITLE13=Helicopter
TTITLE14=Hello Baby
TTITLE15=Hot Water Cornbread Woman
TTITLE16=The Climax
EXTD=YEAR: 2004
EXTT0=
EXTT1=
EXTT2=
EXTT3=
EXTT4=
EXTT5=
EXTT6=
EXTT7=
EXTT8=
EXTT9=
EXTT10=
EXTT11=
EXTT12=
EXTT13=
EXTT14=
EXTT15=
EXTT16=
PLAYORDER=
